<svg xmlns="http://www.w3.org/2000/svg" xmlns:xlink="http://www.w3.org/1999/xlink" width="880" height="646.17"><rect width="880" height="646.17" rx="5" ry="5" class="a"/><svg y="0%" x="0%"><circle cx="20" cy="20" r="6" fill="#ff5f58"/><circle cx="40" cy="20" r="6" fill="#ffbd2e"/><circle cx="60" cy="20" r="6" fill="#18c132"/></svg><svg height="586.17" viewBox="0 0 84 58.617" width="840" x="15" xmlns="http://www.w3.org/2000/svg" xmlns:xlink="http://www.w3.org/1999/xlink" y="50"><style>@keyframes l{0%{transform:translateX(0)}.71%{transform:translateX(-84px)}5.33%{transform:translateX(-168px)}6.15%{transform:translateX(-252px)}8.79%{transform:translateX(-336px)}9.98%{transform:translateX(-420px)}12.84%{transform:translateX(-504px)}12.85%{transform:translateX(-588px)}12.86%{transform:translateX(-756px)}18.71%{transform:translateX(-924px)}21.57%{transform:translateX(-1176px)}21.58%{transform:translateX(-1428px)}25.31%{transform:translateX(-1512px)}25.32%{transform:translateX(-1596px)}26.21%{transform:translateX(-1848px)}26.22%{transform:translateX(-2016px)}31.3%{transform:translateX(-2268px)}32.31%{transform:translateX(-2436px)}32.32%{transform:translateX(-2520px)}34.54%{transform:translateX(-2688px)}35.58%{transform:translateX(-2940px)}43.37%{transform:translateX(-3024px)}43.39%{transform:translateX(-3192px)}54.16%{transform:translateX(-3444px)}54.79%{transform:translateX(-3528px)}54.8%{transform:translateX(-3780px)}55.26%{transform:translateX(-3948px)}56.02%{transform:translateX(-4116px)}57.44%{transform:translateX(-4284px)}60%{transform:translateX(-4452px)}61.34%{transform:translateX(-4536px)}62%{transform:translateX(-4620px)}66.14%{transform:translateX(-4872px)}67.12%{transform:translateX(-5124px)}69.04%{transform:translateX(-5292px)}69.05%{transform:translateX(-5376px)}77.45%{transform:translateX(-5796px)}82.58%{transform:translateX(-5880px)}88.11%{transform:translateX(-6048px)}89.67%{transform:translateX(-6300px)}89.68%{transform:translateX(-6384px)}89.72%{transform:translateX(-6468px)}97.1%{transform:translateX(-6552px)}97.95%{transform:translateX(-6636px)}98.19%{transform:translateX(-6720px)}99.01%{transform:translateX(-6804px)}to{transform:translateX(-6888px)}}.a{fill:#282d35}.f{fill:#b9c0cb;white-space:pre}.g{fill:#a8cc8c}.g,.h,.i{white-space:pre}.h{fill:#b9c0cb;font-weight:700}.i{fill:#66c2cd}</style><g font-family="Monaco,Consolas,Menlo,'Bitstream Vera Sans Mono','Powerline Symbols',monospace" font-size="1.67"><defs><symbol id="1"><text y="1.67" class="f">demo</text><text x="5.01" y="1.67" class="f">&gt;</text></symbol><symbol id="2"><text y="1.67" class="f">demo</text><text x="5.01" y="1.67" class="f">&gt;</text><text x="7.014" y="1.67" class="f">npx</text><text x="11.022" y="1.67" class="f">@beetcb/ms-graph-cli</text><text x="32.064" y="1.67" class="f">--save</text></symbol><symbol id="3"><text y="1.67" class="g">?</text><text x="2.004" y="1.67" class="h">Please</text><text x="9.018" y="1.67" class="h">select</text><text x="16.032" y="1.67" class="h">your</text><text x="21.042" y="1.67" class="h">OneDrive</text><text x="30.06" y="1.67" class="h">or</text><text x="33.066" y="1.67" class="h">SharePoint</text><text x="44.088" y="1.67" class="h">account</text><text x="52.104" y="1.67" class="h">type:</text><text x="58.116" y="1.67" class="f">(Use</text><text x="63.126" y="1.67" class="f">arrow</text><text x="69.138" y="1.67" class="f">keys)</text></symbol><symbol id="4"><text y="1.67" class="i">❯</text><text x="2.004" y="1.67" class="i">Global</text></symbol><symbol id="5"><text x="2.004" y="1.67" class="f">Operated</text><text x="11.022" y="1.67" class="f">by</text><text x="14.028" y="1.67" class="f">21Vianet</text><text x="23.046" y="1.67" class="f">in</text><text x="26.052" y="1.67" class="f">China</text></symbol><symbol id="6"><text y="1.67" class="g">?</text><text x="2.004" y="1.67" class="h">Please</text><text x="9.018" y="1.67" class="h">select</text><text x="16.032" y="1.67" class="h">your</text><text x="21.042" y="1.67" class="h">OneDrive</text><text x="30.06" y="1.67" class="h">or</text><text x="33.066" y="1.67" class="h">SharePoint</text><text x="44.088" y="1.67" class="h">account</text><text x="52.104" y="1.67" class="h">type:</text><text x="58.116" y="1.67" class="i">Operated</text><text x="67.134" y="1.67" class="i">by</text><text x="70.14" y="1.67" class="i">21Vianet</text><text x="79.158" y="1.67" class="i">in</text><text x="82.164" y="1.67" class="i">Ch</text></symbol><symbol id="7"><text y="1.67" class="i">ina</text></symbol><symbol id="8"><text y="1.67" class="g">?</text><text x="2.004" y="1.67" class="h">Please</text><text x="9.018" y="1.67" class="h">select</text><text x="16.032" y="1.67" class="h">your</text><text x="21.042" y="1.67" class="h">deploy</text><text x="28.056" y="1.67" class="h">type</text><text x="33.066" y="1.67" class="h">(OneDrive</text><text x="43.086" y="1.67" class="h">or</text><text x="46.092" y="1.67" class="h">SharePoint):</text><text x="59.118" y="1.67" class="f">(Use</text><text x="64.128" y="1.67" class="f">arrow</text><text x="70.14" y="1.67" class="f">keys)</text></symbol><symbol id="9"><text y="1.67" class="i">❯</text><text x="2.004" y="1.67" class="i">OneDrive</text></symbol><symbol id="10"><text x="2.004" y="1.67" class="f">SharePoint</text></symbol><symbol id="11"><text y="1.67" class="g">?</text><text x="2.004" y="1.67" class="h">Please</text><text x="9.018" y="1.67" class="h">select</text><text x="16.032" y="1.67" class="h">your</text><text x="21.042" y="1.67" class="h">deploy</text><text x="28.056" y="1.67" class="h">type</text><text x="33.066" y="1.67" class="h">(OneDrive</text><text x="43.086" y="1.67" class="h">or</text><text x="46.092" y="1.67" class="h">SharePoint):</text><text x="59.118" y="1.67" class="i">SharePoint</text></symbol><symbol id="12"><text y="1.67" class="g">?</text><text x="2.004" y="1.67" class="h">Enter</text><text x="8.016" y="1.67" class="h">your</text><text x="13.026" y="1.67" class="h">client_id:</text></symbol><symbol id="13"><text y="1.67" class="g">?</text><text x="2.004" y="1.67" class="h">Enter</text><text x="8.016" y="1.67" class="h">your</text><text x="13.026" y="1.67" class="h">client_id:</text><text x="24.048" y="1.67" class="f">1</text></symbol><symbol id="14"><text y="1.67" class="g">?</text><text x="2.004" y="1.67" class="h">Enter</text><text x="8.016" y="1.67" class="h">your</text><text x="13.026" y="1.67" class="h">client_id:</text><text x="24.048" y="1.67" class="i">1</text></symbol><symbol id="15"><text y="1.67" class="g">?</text><text x="2.004" y="1.67" class="h">Enter</text><text x="8.016" y="1.67" class="h">your</text><text x="13.026" y="1.67" class="h">client_secret:</text><text x="28.056" y="1.67" class="i">1</text></symbol><symbol id="16"><text y="1.67" class="g">?</text><text x="2.004" y="1.67" class="h">Enter</text><text x="8.016" y="1.67" class="h">your</text><text x="13.026" y="1.67" class="h">redirect_uri</text><text x="26.052" y="1.67" class="h">([Default]</text><text x="37.074" y="1.67" class="h">http://localhost):</text></symbol><symbol id="17"><text y="1.67" class="g">?</text><text x="2.004" y="1.67" class="h">Use</text><text x="6.012" y="1.67" class="h">your</text><text x="11.022" y="1.67" class="h">browser</text><text x="19.038" y="1.67" class="h">to</text><text x="22.044" y="1.67" class="h">visit</text><text x="28.056" y="1.67" class="h">this</text><text x="33.066" y="1.67" class="h">URL</text><text x="37.074" y="1.67" class="h">for</text><text x="41.082" y="1.67" class="h">login</text><text x="47.094" y="1.67" class="h">and</text><text x="51.102" y="1.67" class="h">authorization:</text></symbol><symbol id="18"><text y="1.67" class="h">https://login.partner.microsoftonline.cn/common/oauth2/v2.0/authorize?client_id=1&amp;sc</text></symbol><symbol id="19"><text y="1.67" class="h">ope=Sites.Read.All+Sites.ReadWrite.All+offline_access&amp;response_type=code&amp;redirect_ur</text></symbol><symbol id="20"><text y="1.67" class="h">i=http://localhost</text></symbol><symbol id="21"><text y="1.67" class="h">Then</text><text x="5.01" y="1.67" class="h">enter</text><text x="11.022" y="1.67" class="h">the</text><text x="15.03" y="1.67" class="h">address</text><text x="23.046" y="1.67" class="h">you</text><text x="27.054" y="1.67" class="h">were</text><text x="32.064" y="1.67" class="h">redirected</text><text x="43.086" y="1.67" class="h">to(it&apos;s</text><text x="51.102" y="1.67" class="h">in</text><text x="54.108" y="1.67" class="h">your</text><text x="59.118" y="1.67" class="h">address</text><text x="67.134" y="1.67" class="h">bar):</text></symbol><symbol id="22"><text x="1.002" y="1.67" class="f">h</text></symbol><symbol id="23"><text x="1.002" y="1.67" class="f">ht</text></symbol><symbol id="24"><text x="1.002" y="1.67" class="f">https:</text></symbol><symbol id="25"><text x="1.002" y="1.67" class="f">https://a</text></symbol><symbol id="26"><text x="1.002" y="1.67" class="f">https://a.</text></symbol><symbol id="27"><text x="1.002" y="1.67" class="f">https://a.a</text></symbol><symbol id="28"><text x="1.002" y="1.67" class="i">https://a.a</text></symbol><symbol id="29"><text y="1.67" class="f">Get</text><text x="4.008" y="1.67" class="f">token</text><text x="10.02" y="1.67" class="f">failed!Bad</text><text x="21.042" y="1.67" class="f">Request</text></symbol><symbol id="30"><text y="1.67" class="g">?</text><text x="2.004" y="1.67" class="h">Do</text><text x="5.01" y="1.67" class="h">you</text><text x="9.018" y="1.67" class="h">want</text><text x="14.028" y="1.67" class="h">to</text><text x="17.034" y="1.67" class="h">get</text><text x="21.042" y="1.67" class="h">SharePoint</text><text x="32.064" y="1.67" class="h">SiteId</text><text x="39.078" y="1.67" class="h">?</text><text x="41.082" y="1.67" class="i">NO</text></symbol><symbol id="31"><text y="1.67" class="f">Saved</text><text x="6.012" y="1.67" class="f">generated</text><text x="16.032" y="1.67" class="f">credentials</text><text x="28.056" y="1.67" class="f">to</text><text x="31.062" y="1.67" class="f">./.env</text><text x="38.076" y="1.67" class="f">,</text><text x="40.08" y="1.67" class="f">enjoy!</text><text x="47.094" y="1.67" class="f">🎉</text></symbol><symbol id="32"><text y="1.67" class="f">demo</text><text x="5.01" y="1.67" class="f">&gt;</text><text x="7.014" y="1.67" class="f">exit</text></symbol><symbol id="a"><path fill="transparent" d="M0 0h84v27H0z"/></symbol><symbol id="b"><path fill="#6f7683" d="M0 0h1.102v2.171H0z"/></symbol></defs><path class="a" d="M0 0h84v58.617H0z"/><g style="animation-duration:25.406083s;animation-iteration-count:infinite;animation-name:l;animation-timing-function:steps(1,end)"><svg width="6972"><svg><use xlink:href="#a"/><use xlink:href="#b" x="-.004"/></svg><svg x="84"><use xlink:href="#a"/><use xlink:href="#b" x="6.996"/><use xlink:href="#1"/></svg><svg x="168"><use xlink:href="#a"/><use xlink:href="#b" x="37.996"/><use xlink:href="#2"/></svg><svg x="252"><use xlink:href="#a"/><use xlink:href="#b" x="33.996"/><text y="1.67" class="f">demo</text><text x="5.01" y="1.67" class="f">&gt;</text><text x="7.014" y="1.67" class="f">sudo</text><text x="12.024" y="1.67" class="f">pip3</text><text x="17.034" y="1.67" class="f">install</text><text x="25.05" y="1.67" class="f">asciinema</text></svg><svg x="336"><use xlink:href="#a"/><use xlink:href="#b" x="37.996"/><use xlink:href="#2"/></svg><svg x="420"><use xlink:href="#a"/><use xlink:href="#b" x="-.004" y="2.146"/><use xlink:href="#2"/></svg><svg x="504"><use xlink:href="#a"/><use xlink:href="#2"/></svg><svg x="588"><use xlink:href="#a"/><use xlink:href="#2"/><use xlink:href="#3" y="2.171"/><use xlink:href="#4" y="4.342"/><use xlink:href="#5" y="6.513"/></svg><svg x="672"><use xlink:href="#a"/><use xlink:href="#2"/><use xlink:href="#3" y="2.171"/><use xlink:href="#4" y="4.342"/><use xlink:href="#5" y="6.513"/></svg><svg x="756"><use xlink:href="#a"/><use xlink:href="#2"/><use xlink:href="#3" y="2.171"/><use xlink:href="#4" y="4.342"/><use xlink:href="#5" y="6.513"/></svg><svg x="840"><use xlink:href="#a"/><use xlink:href="#2"/></svg><svg x="924"><use xlink:href="#a"/><use xlink:href="#2"/><text y="3.841" class="g">?</text><text x="2.004" y="3.841" class="h">Please</text><text x="9.018" y="3.841" class="h">select</text><text x="16.032" y="3.841" class="h">your</text><text x="21.042" y="3.841" class="h">OneDrive</text><text x="30.06" y="3.841" class="h">or</text><text x="33.066" y="3.841" class="h">SharePoint</text><text x="44.088" y="3.841" class="h">account</text><text x="52.104" y="3.841" class="h">type:</text><text x="2.004" y="6.012" class="f">Global</text><text y="8.183" class="i">❯</text><text x="2.004" y="8.183" class="i">Operated</text><text x="11.022" y="8.183" class="i">by</text><text x="14.028" y="8.183" class="i">21Vianet</text><text x="23.046" y="8.183" class="i">in</text><text x="26.052" y="8.183" class="i">China</text></svg><svg x="1008"><use xlink:href="#a"/><use xlink:href="#2"/></svg><svg x="1092"><use xlink:href="#a"/><use xlink:href="#2"/><use xlink:href="#6" y="2.171"/><use xlink:href="#7" y="4.342"/></svg><svg x="1176"><use xlink:href="#a"/><use xlink:href="#b" x="-.004" y="6.488"/><use xlink:href="#2"/><use xlink:href="#6" y="2.171"/><use xlink:href="#7" y="4.342"/></svg><svg x="1260"><use xlink:href="#a"/><use xlink:href="#2"/><use xlink:href="#6" y="2.171"/><use xlink:href="#7" y="4.342"/></svg><svg x="1344"><use xlink:href="#a"/><use xlink:href="#2"/><use xlink:href="#6" y="2.171"/><use xlink:href="#7" y="4.342"/><use xlink:href="#8" y="6.513"/><use xlink:href="#9" y="8.684"/><use xlink:href="#10" y="10.855"/></svg><svg x="1428"><use xlink:href="#a"/><use xlink:href="#2"/><use xlink:href="#6" y="2.171"/><use xlink:href="#7" y="4.342"/><use xlink:href="#8" y="6.513"/><use xlink:href="#9" y="8.684"/><use xlink:href="#10" y="10.855"/></svg><svg x="1512"><use xlink:href="#a"/><use xlink:href="#2"/><use xlink:href="#6" y="2.171"/><use xlink:href="#7" y="4.342"/></svg><svg x="1596"><use xlink:href="#a"/><use xlink:href="#2"/><use xlink:href="#6" y="2.171"/><use xlink:href="#7" y="4.342"/><text y="8.183" class="g">?</text><text x="2.004" y="8.183" class="h">Please</text><text x="9.018" y="8.183" class="h">select</text><text x="16.032" y="8.183" class="h">your</text><text x="21.042" y="8.183" class="h">deploy</text><text x="28.056" y="8.183" class="h">type</text><text x="33.066" y="8.183" class="h">(OneDrive</text><text x="43.086" y="8.183" class="h">or</text><text x="46.092" y="8.183" class="h">SharePoint):</text><text x="2.004" y="10.354" class="f">OneDrive</text><text y="12.525" class="i">❯</text><text x="2.004" y="12.525" class="i">SharePoint</text></svg><svg x="1680"><use xlink:href="#a"/><use xlink:href="#2"/><use xlink:href="#6" y="2.171"/><use xlink:href="#7" y="4.342"/></svg><svg x="1764"><use xlink:href="#a"/><use xlink:href="#2"/><use xlink:href="#6" y="2.171"/><use xlink:href="#7" y="4.342"/><use xlink:href="#11" y="6.513"/></svg><svg x="1848"><use xlink:href="#a"/><use xlink:href="#b" x="-.004" y="8.659"/><use xlink:href="#2"/><use xlink:href="#6" y="2.171"/><use xlink:href="#7" y="4.342"/><use xlink:href="#11" y="6.513"/></svg><svg x="1932"><use xlink:href="#a"/><use xlink:href="#b" x="23.996" y="8.659"/><use xlink:href="#2"/><use xlink:href="#6" y="2.171"/><use xlink:href="#7" y="4.342"/><use xlink:href="#11" y="6.513"/><use xlink:href="#12" y="8.684"/></svg><svg x="2016"><use xlink:href="#a"/><use xlink:href="#b" x="23.996" y="8.659"/><use xlink:href="#2"/><use xlink:href="#6" y="2.171"/><use xlink:href="#7" y="4.342"/><use xlink:href="#11" y="6.513"/><use xlink:href="#12" y="8.684"/></svg><svg x="2100"><use xlink:href="#a"/><use xlink:href="#b" x="-.004" y="8.659"/><use xlink:href="#2"/><use xlink:href="#6" y="2.171"/><use xlink:href="#7" y="4.342"/><use xlink:href="#11" y="6.513"/></svg><svg x="2184"><use xlink:href="#a"/><use xlink:href="#b" x="-.004" y="8.659"/><use xlink:href="#2"/><use xlink:href="#6" y="2.171"/><use xlink:href="#7" y="4.342"/><use xlink:href="#11" y="6.513"/><use xlink:href="#13" y="8.684"/></svg><svg x="2268"><use xlink:href="#a"/><use xlink:href="#b" x="24.996" y="8.659"/><use xlink:href="#2"/><use xlink:href="#6" y="2.171"/><use xlink:href="#7" y="4.342"/><use xlink:href="#11" y="6.513"/><use xlink:href="#13" y="8.684"/></svg><svg x="2352"><use xlink:href="#a"/><use xlink:href="#b" x="-.004" y="8.659"/><use xlink:href="#2"/><use xlink:href="#6" y="2.171"/><use xlink:href="#7" y="4.342"/><use xlink:href="#11" y="6.513"/></svg><svg x="2436"><use xlink:href="#a"/><use xlink:href="#b" x="-.004" y="10.83"/><use xlink:href="#2"/><use xlink:href="#6" y="2.171"/><use xlink:href="#7" y="4.342"/><use xlink:href="#11" y="6.513"/><use xlink:href="#14" y="8.684"/></svg><svg x="2520"><use xlink:href="#a"/><use xlink:href="#b" x="27.996" y="10.83"/><use xlink:href="#2"/><use xlink:href="#6" y="2.171"/><use xlink:href="#7" y="4.342"/><use xlink:href="#11" y="6.513"/><use xlink:href="#14" y="8.684"/><text y="12.525" class="g">?</text><text x="2.004" y="12.525" class="h">Enter</text><text x="8.016" y="12.525" class="h">your</text><text x="13.026" y="12.525" class="h">client_secret:</text></svg><svg x="2604"><use xlink:href="#a"/><use xlink:href="#b" x="-.004" y="10.83"/><use xlink:href="#2"/><use xlink:href="#6" y="2.171"/><use xlink:href="#7" y="4.342"/><use xlink:href="#11" y="6.513"/><use xlink:href="#14" y="8.684"/></svg><svg x="2688"><use xlink:href="#a"/><use xlink:href="#b" x="28.996" y="10.83"/><use xlink:href="#2"/><use xlink:href="#6" y="2.171"/><use xlink:href="#7" y="4.342"/><use xlink:href="#11" y="6.513"/><use xlink:href="#14" y="8.684"/><text y="12.525" class="g">?</text><text x="2.004" y="12.525" class="h">Enter</text><text x="8.016" y="12.525" class="h">your</text><text x="13.026" y="12.525" class="h">client_secret:</text><text x="28.056" y="12.525" class="f">1</text></svg><svg x="2772"><use xlink:href="#a"/><use xlink:href="#b" x="-.004" y="13.001"/><use xlink:href="#2"/><use xlink:href="#6" y="2.171"/><use xlink:href="#7" y="4.342"/><use xlink:href="#11" y="6.513"/><use xlink:href="#14" y="8.684"/><use xlink:href="#15" y="10.855"/></svg><svg x="2856"><use xlink:href="#a"/><use xlink:href="#b" x="55.996" y="13.001"/><use xlink:href="#2"/><use xlink:href="#6" y="2.171"/><use xlink:href="#7" y="4.342"/><use xlink:href="#11" y="6.513"/><use xlink:href="#14" y="8.684"/><use xlink:href="#15" y="10.855"/><use xlink:href="#16" y="13.026"/></svg><svg x="2940"><use xlink:href="#a"/><use xlink:href="#b" x="55.996" y="13.001"/><use xlink:href="#2"/><use xlink:href="#6" y="2.171"/><use xlink:href="#7" y="4.342"/><use xlink:href="#11" y="6.513"/><use xlink:href="#14" y="8.684"/><use xlink:href="#15" y="10.855"/><use xlink:href="#16" y="13.026"/></svg><svg x="3024"><use xlink:href="#a"/><use xlink:href="#b" x="-.004" y="15.172"/><use xlink:href="#2"/><use xlink:href="#6" y="2.171"/><use xlink:href="#7" y="4.342"/><use xlink:href="#11" y="6.513"/><use xlink:href="#14" y="8.684"/><use xlink:href="#15" y="10.855"/><use xlink:href="#16" y="13.026"/></svg><svg x="3108"><use xlink:href="#a"/><use xlink:href="#b" x=".996" y="26.027"/><use xlink:href="#2"/><use xlink:href="#6" y="2.171"/><use xlink:href="#7" y="4.342"/><use xlink:href="#11" y="6.513"/><use xlink:href="#14" y="8.684"/><use xlink:href="#15" y="10.855"/><use xlink:href="#16" y="13.026"/><use xlink:href="#17" y="15.197"/><use xlink:href="#18" y="17.368"/><use xlink:href="#19" y="19.539"/><use xlink:href="#20" y="21.71"/><use xlink:href="#21" y="23.881"/></svg><svg x="3192"><use xlink:href="#a"/><use xlink:href="#b" x=".996" y="26.027"/><use xlink:href="#2"/><use xlink:href="#6" y="2.171"/><use xlink:href="#7" y="4.342"/><use xlink:href="#11" y="6.513"/><use xlink:href="#14" y="8.684"/><use xlink:href="#15" y="10.855"/><use xlink:href="#16" y="13.026"/><use xlink:href="#17" y="15.197"/><use xlink:href="#18" y="17.368"/><use xlink:href="#19" y="19.539"/><use xlink:href="#20" y="21.71"/><use xlink:href="#21" y="23.881"/></svg><svg x="3276"><use xlink:href="#a"/><use xlink:href="#b" x="-.004" y="15.172"/><use xlink:href="#2"/><use xlink:href="#6" y="2.171"/><use xlink:href="#7" y="4.342"/><use xlink:href="#11" y="6.513"/><use xlink:href="#14" y="8.684"/><use xlink:href="#15" y="10.855"/><use xlink:href="#16" y="13.026"/></svg><svg x="3360"><use xlink:href="#a"/><use xlink:href="#b" x="1.996" y="26.027"/><use xlink:href="#2"/><use xlink:href="#6" y="2.171"/><use xlink:href="#7" y="4.342"/><use xlink:href="#11" y="6.513"/><use xlink:href="#14" y="8.684"/><use xlink:href="#15" y="10.855"/><use xlink:href="#16" y="13.026"/><use xlink:href="#17" y="15.197"/><use xlink:href="#18" y="17.368"/><use xlink:href="#19" y="19.539"/><use xlink:href="#20" y="21.71"/><use xlink:href="#21" y="23.881"/><use xlink:href="#22" y="26.052"/></svg><svg x="3444"><use xlink:href="#a"/><use xlink:href="#b" x="1.996" y="26.027"/><use xlink:href="#2"/><use xlink:href="#6" y="2.171"/><use xlink:href="#7" y="4.342"/><use xlink:href="#11" y="6.513"/><use xlink:href="#14" y="8.684"/><use xlink:href="#15" y="10.855"/><use xlink:href="#16" y="13.026"/><use xlink:href="#17" y="15.197"/><use xlink:href="#18" y="17.368"/><use xlink:href="#19" y="19.539"/><use xlink:href="#20" y="21.71"/><use xlink:href="#21" y="23.881"/><use xlink:href="#22" y="26.052"/></svg><svg x="3528"><use xlink:href="#a"/><use xlink:href="#b" x="-.004" y="15.172"/><use xlink:href="#2"/><use xlink:href="#6" y="2.171"/><use xlink:href="#7" y="4.342"/><use xlink:href="#11" y="6.513"/><use xlink:href="#14" y="8.684"/><use xlink:href="#15" y="10.855"/><use xlink:href="#16" y="13.026"/></svg><svg x="3612"><use xlink:href="#a"/><use xlink:href="#b" x="2.996" y="26.027"/><use xlink:href="#2"/><use xlink:href="#6" y="2.171"/><use xlink:href="#7" y="4.342"/><use xlink:href="#11" y="6.513"/><use xlink:href="#14" y="8.684"/><use xlink:href="#15" y="10.855"/><use xlink:href="#16" y="13.026"/><use xlink:href="#17" y="15.197"/><use xlink:href="#18" y="17.368"/><use xlink:href="#19" y="19.539"/><use xlink:href="#20" y="21.71"/><use xlink:href="#21" y="23.881"/><use xlink:href="#23" y="26.052"/></svg><svg x="3696"><use xlink:href="#a"/><use xlink:href="#b" x="-.004" y="26.027"/><use xlink:href="#2"/><use xlink:href="#6" y="2.171"/><use xlink:href="#7" y="4.342"/><use xlink:href="#11" y="6.513"/><use xlink:href="#14" y="8.684"/><use xlink:href="#15" y="10.855"/><use xlink:href="#16" y="13.026"/><use xlink:href="#17" y="15.197"/><use xlink:href="#18" y="17.368"/><use xlink:href="#19" y="19.539"/><use xlink:href="#20" y="21.71"/><use xlink:href="#21" y="23.881"/><use xlink:href="#23" y="26.052"/></svg><svg x="3780"><use xlink:href="#a"/><use xlink:href="#b" x="2.996" y="26.027"/><use xlink:href="#2"/><use xlink:href="#6" y="2.171"/><use xlink:href="#7" y="4.342"/><use xlink:href="#11" y="6.513"/><use xlink:href="#14" y="8.684"/><use xlink:href="#15" y="10.855"/><use xlink:href="#16" y="13.026"/><use xlink:href="#17" y="15.197"/><use xlink:href="#18" y="17.368"/><use xlink:href="#19" y="19.539"/><use xlink:href="#20" y="21.71"/><use xlink:href="#21" y="23.881"/><use xlink:href="#23" y="26.052"/></svg><svg x="3864"><use xlink:href="#a"/><use xlink:href="#b" x="-.004" y="15.172"/><use xlink:href="#2"/><use xlink:href="#6" y="2.171"/><use xlink:href="#7" y="4.342"/><use xlink:href="#11" y="6.513"/><use xlink:href="#14" y="8.684"/><use xlink:href="#15" y="10.855"/><use xlink:href="#16" y="13.026"/></svg><svg x="3948"><use xlink:href="#a"/><use xlink:href="#b" x="3.996" y="26.027"/><use xlink:href="#2"/><use xlink:href="#6" y="2.171"/><use xlink:href="#7" y="4.342"/><use xlink:href="#11" y="6.513"/><use xlink:href="#14" y="8.684"/><use xlink:href="#15" y="10.855"/><use xlink:href="#16" y="13.026"/><use xlink:href="#17" y="15.197"/><use xlink:href="#18" y="17.368"/><use xlink:href="#19" y="19.539"/><use xlink:href="#20" y="21.71"/><use xlink:href="#21" y="23.881"/><text x="1.002" y="27.722" class="f">htt</text></svg><svg x="4032"><use xlink:href="#a"/><use xlink:href="#b" x="-.004" y="15.172"/><use xlink:href="#2"/><use xlink:href="#6" y="2.171"/><use xlink:href="#7" y="4.342"/><use xlink:href="#11" y="6.513"/><use xlink:href="#14" y="8.684"/><use xlink:href="#15" y="10.855"/><use xlink:href="#16" y="13.026"/></svg><svg x="4116"><use xlink:href="#a"/><use xlink:href="#b" x="4.996" y="26.027"/><use xlink:href="#2"/><use xlink:href="#6" y="2.171"/><use xlink:href="#7" y="4.342"/><use xlink:href="#11" y="6.513"/><use xlink:href="#14" y="8.684"/><use xlink:href="#15" y="10.855"/><use xlink:href="#16" y="13.026"/><use xlink:href="#17" y="15.197"/><use xlink:href="#18" y="17.368"/><use xlink:href="#19" y="19.539"/><use xlink:href="#20" y="21.71"/><use xlink:href="#21" y="23.881"/><text x="1.002" y="27.722" class="f">http</text></svg><svg x="4200"><use xlink:href="#a"/><use xlink:href="#b" x="-.004" y="15.172"/><use xlink:href="#2"/><use xlink:href="#6" y="2.171"/><use xlink:href="#7" y="4.342"/><use xlink:href="#11" y="6.513"/><use xlink:href="#14" y="8.684"/><use xlink:href="#15" y="10.855"/><use xlink:href="#16" y="13.026"/></svg><svg x="4284"><use xlink:href="#a"/><use xlink:href="#b" x="5.996" y="26.027"/><use xlink:href="#2"/><use xlink:href="#6" y="2.171"/><use xlink:href="#7" y="4.342"/><use xlink:href="#11" y="6.513"/><use xlink:href="#14" y="8.684"/><use xlink:href="#15" y="10.855"/><use xlink:href="#16" y="13.026"/><use xlink:href="#17" y="15.197"/><use xlink:href="#18" y="17.368"/><use xlink:href="#19" y="19.539"/><use xlink:href="#20" y="21.71"/><use xlink:href="#21" y="23.881"/><text x="1.002" y="27.722" class="f">https</text></svg><svg x="4368"><use xlink:href="#a"/><use xlink:href="#b" x="6.996" y="26.027"/><use xlink:href="#2"/><use xlink:href="#6" y="2.171"/><use xlink:href="#7" y="4.342"/><use xlink:href="#11" y="6.513"/><use xlink:href="#14" y="8.684"/><use xlink:href="#15" y="10.855"/><use xlink:href="#16" y="13.026"/><use xlink:href="#17" y="15.197"/><use xlink:href="#18" y="17.368"/><use xlink:href="#19" y="19.539"/><use xlink:href="#20" y="21.71"/><use xlink:href="#21" y="23.881"/><use xlink:href="#24" y="26.052"/></svg><svg x="4452"><use xlink:href="#a"/><use xlink:href="#b" x="6.996" y="26.027"/><use xlink:href="#2"/><use xlink:href="#6" y="2.171"/><use xlink:href="#7" y="4.342"/><use xlink:href="#11" y="6.513"/><use xlink:href="#14" y="8.684"/><use xlink:href="#15" y="10.855"/><use xlink:href="#16" y="13.026"/><use xlink:href="#17" y="15.197"/><use xlink:href="#18" y="17.368"/><use xlink:href="#19" y="19.539"/><use xlink:href="#20" y="21.71"/><use xlink:href="#21" y="23.881"/><use xlink:href="#24" y="26.052"/></svg><svg x="4536"><use xlink:href="#a"/><use xlink:href="#b" x="7.996" y="26.027"/><use xlink:href="#2"/><use xlink:href="#6" y="2.171"/><use xlink:href="#7" y="4.342"/><use xlink:href="#11" y="6.513"/><use xlink:href="#14" y="8.684"/><use xlink:href="#15" y="10.855"/><use xlink:href="#16" y="13.026"/><use xlink:href="#17" y="15.197"/><use xlink:href="#18" y="17.368"/><use xlink:href="#19" y="19.539"/><use xlink:href="#20" y="21.71"/><use xlink:href="#21" y="23.881"/><text x="1.002" y="27.722" class="f">https:/</text></svg><svg x="4620"><use xlink:href="#a"/><use xlink:href="#b" x="8.996" y="26.027"/><use xlink:href="#2"/><use xlink:href="#6" y="2.171"/><use xlink:href="#7" y="4.342"/><use xlink:href="#11" y="6.513"/><use xlink:href="#14" y="8.684"/><use xlink:href="#15" y="10.855"/><use xlink:href="#16" y="13.026"/><use xlink:href="#17" y="15.197"/><use xlink:href="#18" y="17.368"/><use xlink:href="#19" y="19.539"/><use xlink:href="#20" y="21.71"/><use xlink:href="#21" y="23.881"/><text x="1.002" y="27.722" class="f">https://</text></svg><svg x="4704"><use xlink:href="#a"/><use xlink:href="#b" x="-.004" y="15.172"/><use xlink:href="#2"/><use xlink:href="#6" y="2.171"/><use xlink:href="#7" y="4.342"/><use xlink:href="#11" y="6.513"/><use xlink:href="#14" y="8.684"/><use xlink:href="#15" y="10.855"/><use xlink:href="#16" y="13.026"/></svg><svg x="4788"><use xlink:href="#a"/><use xlink:href="#b" x="9.996" y="26.027"/><use xlink:href="#2"/><use xlink:href="#6" y="2.171"/><use xlink:href="#7" y="4.342"/><use xlink:href="#11" y="6.513"/><use xlink:href="#14" y="8.684"/><use xlink:href="#15" y="10.855"/><use xlink:href="#16" y="13.026"/><use xlink:href="#17" y="15.197"/><use xlink:href="#18" y="17.368"/><use xlink:href="#19" y="19.539"/><use xlink:href="#20" y="21.71"/><use xlink:href="#21" y="23.881"/><use xlink:href="#25" y="26.052"/></svg><svg x="4872"><use xlink:href="#a"/><use xlink:href="#b" x="9.996" y="26.027"/><use xlink:href="#2"/><use xlink:href="#6" y="2.171"/><use xlink:href="#7" y="4.342"/><use xlink:href="#11" y="6.513"/><use xlink:href="#14" y="8.684"/><use xlink:href="#15" y="10.855"/><use xlink:href="#16" y="13.026"/><use xlink:href="#17" y="15.197"/><use xlink:href="#18" y="17.368"/><use xlink:href="#19" y="19.539"/><use xlink:href="#20" y="21.71"/><use xlink:href="#21" y="23.881"/><use xlink:href="#25" y="26.052"/></svg><svg x="4956"><use xlink:href="#a"/><use xlink:href="#b" x="-.004" y="15.172"/><use xlink:href="#2"/><use xlink:href="#6" y="2.171"/><use xlink:href="#7" y="4.342"/><use xlink:href="#11" y="6.513"/><use xlink:href="#14" y="8.684"/><use xlink:href="#15" y="10.855"/><use xlink:href="#16" y="13.026"/></svg><svg x="5040"><use xlink:href="#a"/><use xlink:href="#b" x="10.996" y="26.027"/><use xlink:href="#2"/><use xlink:href="#6" y="2.171"/><use xlink:href="#7" y="4.342"/><use xlink:href="#11" y="6.513"/><use xlink:href="#14" y="8.684"/><use xlink:href="#15" y="10.855"/><use xlink:href="#16" y="13.026"/><use xlink:href="#17" y="15.197"/><use xlink:href="#18" y="17.368"/><use xlink:href="#19" y="19.539"/><use xlink:href="#20" y="21.71"/><use xlink:href="#21" y="23.881"/><use xlink:href="#26" y="26.052"/></svg><svg x="5124"><use xlink:href="#a"/><use xlink:href="#b" x="10.996" y="26.027"/><use xlink:href="#2"/><use xlink:href="#6" y="2.171"/><use xlink:href="#7" y="4.342"/><use xlink:href="#11" y="6.513"/><use xlink:href="#14" y="8.684"/><use xlink:href="#15" y="10.855"/><use xlink:href="#16" y="13.026"/><use xlink:href="#17" y="15.197"/><use xlink:href="#18" y="17.368"/><use xlink:href="#19" y="19.539"/><use xlink:href="#20" y="21.71"/><use xlink:href="#21" y="23.881"/><use xlink:href="#26" y="26.052"/></svg><svg x="5208"><use xlink:href="#a"/><use xlink:href="#b" x="-.004" y="15.172"/><use xlink:href="#2"/><use xlink:href="#6" y="2.171"/><use xlink:href="#7" y="4.342"/><use xlink:href="#11" y="6.513"/><use xlink:href="#14" y="8.684"/><use xlink:href="#15" y="10.855"/><use xlink:href="#16" y="13.026"/></svg><svg x="5292"><use xlink:href="#a"/><use xlink:href="#b" x="11.996" y="26.027"/><use xlink:href="#2"/><use xlink:href="#6" y="2.171"/><use xlink:href="#7" y="4.342"/><use xlink:href="#11" y="6.513"/><use xlink:href="#14" y="8.684"/><use xlink:href="#15" y="10.855"/><use xlink:href="#16" y="13.026"/><use xlink:href="#17" y="15.197"/><use xlink:href="#18" y="17.368"/><use xlink:href="#19" y="19.539"/><use xlink:href="#20" y="21.71"/><use xlink:href="#21" y="23.881"/><use xlink:href="#27" y="26.052"/></svg><svg x="5376"><use xlink:href="#a"/><use xlink:href="#b" x="11.996" y="26.027"/><use xlink:href="#2"/><use xlink:href="#6" y="2.171"/><use xlink:href="#7" y="4.342"/><use xlink:href="#11" y="6.513"/><use xlink:href="#14" y="8.684"/><use xlink:href="#15" y="10.855"/><use xlink:href="#16" y="13.026"/><use xlink:href="#17" y="15.197"/><use xlink:href="#18" y="17.368"/><use xlink:href="#19" y="19.539"/><use xlink:href="#20" y="21.71"/><use xlink:href="#21" y="23.881"/><use xlink:href="#27" y="26.052"/></svg><svg x="5460"><use xlink:href="#a"/><use xlink:href="#b" x="-.004" y="15.172"/><use xlink:href="#2"/><use xlink:href="#6" y="2.171"/><use xlink:href="#7" y="4.342"/><use xlink:href="#11" y="6.513"/><use xlink:href="#14" y="8.684"/><use xlink:href="#15" y="10.855"/><use xlink:href="#16" y="13.026"/></svg><svg x="5544"><use xlink:href="#a"/><use xlink:href="#b" x="11.996" y="26.027"/><use xlink:href="#2"/><use xlink:href="#6" y="2.171"/><use xlink:href="#7" y="4.342"/><use xlink:href="#11" y="6.513"/><use xlink:href="#14" y="8.684"/><use xlink:href="#15" y="10.855"/><use xlink:href="#16" y="13.026"/><use xlink:href="#17" y="15.197"/><use xlink:href="#18" y="17.368"/><use xlink:href="#19" y="19.539"/><use xlink:href="#20" y="21.71"/><use xlink:href="#21" y="23.881"/><use xlink:href="#28" y="26.052"/></svg><svg x="5628"><use xlink:href="#a"/><use xlink:href="#b" x="-.004" y="26.027"/><use xlink:href="#2"/><use xlink:href="#6" y="2.171"/><use xlink:href="#7" y="4.342"/><use xlink:href="#11" y="6.513"/><use xlink:href="#14" y="8.684"/><use xlink:href="#15" y="10.855"/><use xlink:href="#16" y="13.026"/><use xlink:href="#17" y="15.197"/><use xlink:href="#18" y="17.368"/><use xlink:href="#19" y="19.539"/><use xlink:href="#20" y="21.71"/><use xlink:href="#21" y="23.881"/><use xlink:href="#28" y="26.052"/></svg><svg x="5712"><use xlink:href="#a"/><use xlink:href="#b" x="11.996" y="26.027"/><use xlink:href="#2"/><use xlink:href="#6" y="2.171"/><use xlink:href="#7" y="4.342"/><use xlink:href="#11" y="6.513"/><use xlink:href="#14" y="8.684"/><use xlink:href="#15" y="10.855"/><use xlink:href="#16" y="13.026"/><use xlink:href="#17" y="15.197"/><use xlink:href="#18" y="17.368"/><use xlink:href="#19" y="19.539"/><use xlink:href="#20" y="21.71"/><use xlink:href="#21" y="23.881"/><use xlink:href="#28" y="26.052"/></svg><svg x="5796"><use xlink:href="#a"/><use xlink:href="#b" x="-.004" y="28.198"/><use xlink:href="#2"/><use xlink:href="#6" y="2.171"/><use xlink:href="#7" y="4.342"/><use xlink:href="#11" y="6.513"/><use xlink:href="#14" y="8.684"/><use xlink:href="#15" y="10.855"/><use xlink:href="#16" y="13.026"/><use xlink:href="#17" y="15.197"/><use xlink:href="#18" y="17.368"/><use xlink:href="#19" y="19.539"/><use xlink:href="#20" y="21.71"/><use xlink:href="#21" y="23.881"/><use xlink:href="#28" y="26.052"/></svg><svg x="5880"><use xlink:href="#a"/><use xlink:href="#2"/><use xlink:href="#6" y="2.171"/><use xlink:href="#7" y="4.342"/><use xlink:href="#11" y="6.513"/><use xlink:href="#14" y="8.684"/><use xlink:href="#15" y="10.855"/><use xlink:href="#16" y="13.026"/><use xlink:href="#17" y="15.197"/><use xlink:href="#18" y="17.368"/><use xlink:href="#19" y="19.539"/><use xlink:href="#20" y="21.71"/><use xlink:href="#21" y="23.881"/><use xlink:href="#28" y="26.052"/><use xlink:href="#29" y="28.223"/><text y="32.064" class="g">?</text><text x="2.004" y="32.064" class="h">Do</text><text x="5.01" y="32.064" class="h">you</text><text x="9.018" y="32.064" class="h">want</text><text x="14.028" y="32.064" class="h">to</text><text x="17.034" y="32.064" class="h">get</text><text x="21.042" y="32.064" class="h">SharePoint</text><text x="32.064" y="32.064" class="h">SiteId</text><text x="39.078" y="32.064" class="h">?</text><text x="41.082" y="32.064" class="f">(Use</text><text x="46.092" y="32.064" class="f">arrow</text><text x="52.104" y="32.064" class="f">keys)</text><text y="34.235" class="i">❯</text><text x="2.004" y="34.235" class="i">YES</text><text x="2.004" y="36.406" class="f">NO</text></svg><svg x="5964"><use xlink:href="#a"/><use xlink:href="#2"/><use xlink:href="#6" y="2.171"/><use xlink:href="#7" y="4.342"/><use xlink:href="#11" y="6.513"/><use xlink:href="#14" y="8.684"/><use xlink:href="#15" y="10.855"/><use xlink:href="#16" y="13.026"/><use xlink:href="#17" y="15.197"/><use xlink:href="#18" y="17.368"/><use xlink:href="#19" y="19.539"/><use xlink:href="#20" y="21.71"/><use xlink:href="#21" y="23.881"/><use xlink:href="#28" y="26.052"/><use xlink:href="#29" y="28.223"/></svg><svg x="6048"><use xlink:href="#a"/><use xlink:href="#2"/><use xlink:href="#6" y="2.171"/><use xlink:href="#7" y="4.342"/><use xlink:href="#11" y="6.513"/><use xlink:href="#14" y="8.684"/><use xlink:href="#15" y="10.855"/><use xlink:href="#16" y="13.026"/><use xlink:href="#17" y="15.197"/><use xlink:href="#18" y="17.368"/><use xlink:href="#19" y="19.539"/><use xlink:href="#20" y="21.71"/><use xlink:href="#21" y="23.881"/><use xlink:href="#28" y="26.052"/><use xlink:href="#29" y="28.223"/><text y="32.064" class="g">?</text><text x="2.004" y="32.064" class="h">Do</text><text x="5.01" y="32.064" class="h">you</text><text x="9.018" y="32.064" class="h">want</text><text x="14.028" y="32.064" class="h">to</text><text x="17.034" y="32.064" class="h">get</text><text x="21.042" y="32.064" class="h">SharePoint</text><text x="32.064" y="32.064" class="h">SiteId</text><text x="39.078" y="32.064" class="h">?</text><text x="2.004" y="34.235" class="f">YES</text><text y="36.406" class="i">❯</text><text x="2.004" y="36.406" class="i">NO</text></svg><svg x="6132"><use xlink:href="#a"/><use xlink:href="#2"/><use xlink:href="#6" y="2.171"/><use xlink:href="#7" y="4.342"/><use xlink:href="#11" y="6.513"/><use xlink:href="#14" y="8.684"/><use xlink:href="#15" y="10.855"/><use xlink:href="#16" y="13.026"/><use xlink:href="#17" y="15.197"/><use xlink:href="#18" y="17.368"/><use xlink:href="#19" y="19.539"/><use xlink:href="#20" y="21.71"/><use xlink:href="#21" y="23.881"/><use xlink:href="#28" y="26.052"/><use xlink:href="#29" y="28.223"/><use xlink:href="#30" y="30.394"/></svg><svg x="6216"><use xlink:href="#a"/><use xlink:href="#b" x="-.004" y="32.54"/><use xlink:href="#2"/><use xlink:href="#6" y="2.171"/><use xlink:href="#7" y="4.342"/><use xlink:href="#11" y="6.513"/><use xlink:href="#14" y="8.684"/><use xlink:href="#15" y="10.855"/><use xlink:href="#16" y="13.026"/><use xlink:href="#17" y="15.197"/><use xlink:href="#18" y="17.368"/><use xlink:href="#19" y="19.539"/><use xlink:href="#20" y="21.71"/><use xlink:href="#21" y="23.881"/><use xlink:href="#28" y="26.052"/><use xlink:href="#29" y="28.223"/><use xlink:href="#30" y="30.394"/></svg><svg x="6300"><use xlink:href="#a"/><use xlink:href="#b" x="-.004" y="34.711"/><use xlink:href="#2"/><use xlink:href="#6" y="2.171"/><use xlink:href="#7" y="4.342"/><use xlink:href="#11" y="6.513"/><use xlink:href="#14" y="8.684"/><use xlink:href="#15" y="10.855"/><use xlink:href="#16" y="13.026"/><use xlink:href="#17" y="15.197"/><use xlink:href="#18" y="17.368"/><use xlink:href="#19" y="19.539"/><use xlink:href="#20" y="21.71"/><use xlink:href="#21" y="23.881"/><use xlink:href="#28" y="26.052"/><use xlink:href="#29" y="28.223"/><use xlink:href="#30" y="30.394"/><use xlink:href="#31" y="32.565"/></svg><svg x="6384"><use xlink:href="#a"/><use xlink:href="#b" x="-.004" y="34.711"/><use xlink:href="#2"/><use xlink:href="#6" y="2.171"/><use xlink:href="#7" y="4.342"/><use xlink:href="#11" y="6.513"/><use xlink:href="#14" y="8.684"/><use xlink:href="#15" y="10.855"/><use xlink:href="#16" y="13.026"/><use xlink:href="#17" y="15.197"/><use xlink:href="#18" y="17.368"/><use xlink:href="#19" y="19.539"/><use xlink:href="#20" y="21.71"/><use xlink:href="#21" y="23.881"/><use xlink:href="#28" y="26.052"/><use xlink:href="#29" y="28.223"/><use xlink:href="#30" y="30.394"/><use xlink:href="#31" y="32.565"/></svg><svg x="6468"><use xlink:href="#a"/><use xlink:href="#b" x="6.996" y="34.711"/><use xlink:href="#2"/><use xlink:href="#6" y="2.171"/><use xlink:href="#7" y="4.342"/><use xlink:href="#11" y="6.513"/><use xlink:href="#14" y="8.684"/><use xlink:href="#15" y="10.855"/><use xlink:href="#16" y="13.026"/><use xlink:href="#17" y="15.197"/><use xlink:href="#18" y="17.368"/><use xlink:href="#19" y="19.539"/><use xlink:href="#20" y="21.71"/><use xlink:href="#21" y="23.881"/><use xlink:href="#28" y="26.052"/><use xlink:href="#29" y="28.223"/><use xlink:href="#30" y="30.394"/><use xlink:href="#31" y="32.565"/><use xlink:href="#1" y="34.736"/></svg><svg x="6552"><use xlink:href="#a"/><use xlink:href="#b" x="7.996" y="34.711"/><use xlink:href="#2"/><use xlink:href="#6" y="2.171"/><use xlink:href="#7" y="4.342"/><use xlink:href="#11" y="6.513"/><use xlink:href="#14" y="8.684"/><use xlink:href="#15" y="10.855"/><use xlink:href="#16" y="13.026"/><use xlink:href="#17" y="15.197"/><use xlink:href="#18" y="17.368"/><use xlink:href="#19" y="19.539"/><use xlink:href="#20" y="21.71"/><use xlink:href="#21" y="23.881"/><use xlink:href="#28" y="26.052"/><use xlink:href="#29" y="28.223"/><use xlink:href="#30" y="30.394"/><use xlink:href="#31" y="32.565"/><text y="36.406" class="f">demo</text><text x="5.01" y="36.406" class="f">&gt;</text><text x="7.014" y="36.406" class="f">e</text></svg><svg x="6636"><use xlink:href="#a"/><use xlink:href="#b" x="8.996" y="34.711"/><use xlink:href="#2"/><use xlink:href="#6" y="2.171"/><use xlink:href="#7" y="4.342"/><use xlink:href="#11" y="6.513"/><use xlink:href="#14" y="8.684"/><use xlink:href="#15" y="10.855"/><use xlink:href="#16" y="13.026"/><use xlink:href="#17" y="15.197"/><use xlink:href="#18" y="17.368"/><use xlink:href="#19" y="19.539"/><use xlink:href="#20" y="21.71"/><use xlink:href="#21" y="23.881"/><use xlink:href="#28" y="26.052"/><use xlink:href="#29" y="28.223"/><use xlink:href="#30" y="30.394"/><use xlink:href="#31" y="32.565"/><text y="36.406" class="f">demo</text><text x="5.01" y="36.406" class="f">&gt;</text><text x="7.014" y="36.406" class="f">ex</text></svg><svg x="6720"><use xlink:href="#a"/><use xlink:href="#b" x="9.996" y="34.711"/><use xlink:href="#2"/><use xlink:href="#6" y="2.171"/><use xlink:href="#7" y="4.342"/><use xlink:href="#11" y="6.513"/><use xlink:href="#14" y="8.684"/><use xlink:href="#15" y="10.855"/><use xlink:href="#16" y="13.026"/><use xlink:href="#17" y="15.197"/><use xlink:href="#18" y="17.368"/><use xlink:href="#19" y="19.539"/><use xlink:href="#20" y="21.71"/><use xlink:href="#21" y="23.881"/><use xlink:href="#28" y="26.052"/><use xlink:href="#29" y="28.223"/><use xlink:href="#30" y="30.394"/><use xlink:href="#31" y="32.565"/><text y="36.406" class="f">demo</text><text x="5.01" y="36.406" class="f">&gt;</text><text x="7.014" y="36.406" class="f">exi</text></svg><svg x="6804"><use xlink:href="#a"/><use xlink:href="#b" x="10.996" y="34.711"/><use xlink:href="#2"/><use xlink:href="#6" y="2.171"/><use xlink:href="#7" y="4.342"/><use xlink:href="#11" y="6.513"/><use xlink:href="#14" y="8.684"/><use xlink:href="#15" y="10.855"/><use xlink:href="#16" y="13.026"/><use xlink:href="#17" y="15.197"/><use xlink:href="#18" y="17.368"/><use xlink:href="#19" y="19.539"/><use xlink:href="#20" y="21.71"/><use xlink:href="#21" y="23.881"/><use xlink:href="#28" y="26.052"/><use xlink:href="#29" y="28.223"/><use xlink:href="#30" y="30.394"/><use xlink:href="#31" y="32.565"/><use xlink:href="#32" y="34.736"/></svg><svg x="6888"><use xlink:href="#a"/><use xlink:href="#b" x="-.004" y="39.053"/><use xlink:href="#2"/><use xlink:href="#6" y="2.171"/><use xlink:href="#7" y="4.342"/><use xlink:href="#11" y="6.513"/><use xlink:href="#14" y="8.684"/><use xlink:href="#15" y="10.855"/><use xlink:href="#16" y="13.026"/><use xlink:href="#17" y="15.197"/><use xlink:href="#18" y="17.368"/><use xlink:href="#19" y="19.539"/><use xlink:href="#20" y="21.71"/><use xlink:href="#21" y="23.881"/><use xlink:href="#28" y="26.052"/><use xlink:href="#29" y="28.223"/><use xlink:href="#30" y="30.394"/><use xlink:href="#31" y="32.565"/><use xlink:href="#32" y="34.736"/><text y="38.577" class="f">exit</text></svg></svg></g></g></svg></svg>